<?xml version="1.0" encoding="UTF-8" standalone="no"?>
<svg
   version="1.1"
   viewBox="0 0 525 525"
   id="svg578"
   xmlns="http://www.w3.org/2000/svg"
   xmlns:svg="http://www.w3.org/2000/svg">
  <defs
     id="defs482" />
  <g
     id="layer1"
     style="fill:#ffffff;fill-opacity:1;stroke:#ffffff;stroke-width:10;stroke-dasharray:none;stroke-opacity:1"
     transform="translate(-87.500973,-17.501223)">
    <path
       style="fill:#ffffff;fill-opacity:1;stroke:#ffffff;stroke-width:9.87885;stroke-dasharray:none;stroke-dashoffset:0;stroke-opacity:1"
       d="m 135.45408,160.34094 c 0,-21.63453 0.87548,-27.56552 5.28754,-35.82092 3.29684,-6.1687 12.14561,-14.60037 18.6039,-17.72697 8.77582,-4.24855 13.21201,-4.82714 37.12816,-4.84247 l 21.33252,-0.0136 0.30881,9.25361 c 0.24954,7.47792 0.65016,10.00923 2.08774,13.19132 5.68694,12.58819 20.80148,17.70368 33.51232,11.34218 8.93639,-4.47247 12.98139,-13.07085 12.98139,-27.59427 v -6.19284 h 83.19394 83.19393 l 0.43422,8.85984 c 0.51137,10.43385 1.89546,14.94361 6.03147,19.65228 9.1607,10.42908 26.22277,10.66496 35.95447,0.49706 4.5441,-4.74778 6.0336,-9.35961 6.38053,-19.75557 l 0.30881,-9.25361 20.93958,0.0136 c 23.45407,0.0153 28.55423,0.6813 37.05017,4.83809 6.68687,3.27167 15.39893,11.89635 18.76032,18.57215 4.37429,8.68741 4.81616,11.82814 4.81616,34.23207 V 179.9035 H 349.60707 135.45408 Z"
       id="path2802" />
  </g>
  <g
     id="g576"
     transform="matrix(0.98684391,0,0,0.988927,-82.896334,-14.400767)">
    <path
       id="path484"
       d="m 240.7998,14.562012 c -13.44098,0 -24.07763,10.64065 -24.07763,24.077636 V 51.52002 h -40.32276 c -50.96094,0 -92.397945,41.441 -92.397945,92.39795 v 309.12012 c 0,50.96094 41.441005,92.40234 92.397945,92.40234 h 346.64063 c 51.51995,0 92.96045,-41.441 92.96045,-92.39795 V 143.92236 c 0,-50.960946 -41.4405,-92.40234 -92.96045,-92.40234 h -39.76172 l 0.004,-12.878907 c 0,-13.440986 -10.64211,-24.077636 -24.0791,-24.077636 -13.44098,0 -24.07763,10.64065 -24.07763,24.077636 V 51.518555 H 264.87744 V 38.639648 c 0,-13.440986 -10.64065,-24.077636 -24.07764,-24.077636 z m -64.40039,85.117676 h 40.32276 v 12.881832 c -0.004,13.43799 10.63665,24.07911 24.07763,24.07911 13.44099,0 24.07764,-10.64212 24.07764,-24.07911 V 99.682617 h 170.24854 v 12.880373 c 0,13.44098 10.64065,24.07764 24.07763,24.07764 13.44099,0 24.0791,-10.64066 24.0791,-24.07764 V 99.684082 h 39.76172 c 24.64098,0 44.23828,19.602308 44.23828,44.238278 v 35.27637 H 132.1626 v -35.28076 c 0,-24.64098 19.60084,-44.238282 44.23681,-44.238282 z M 132.16553,227.36426 h 435.12011 v 225.67969 l 0.55518,-0.004 c 0,24.64098 -19.60231,44.23828 -44.23828,44.23828 l -347.2002,0.004 c -24.64097,0 -44.23681,-19.60231 -44.23681,-44.23828 z" />
    <path
       d="m 196.56,337.68 h 56.559 c 8.3984,0 14.559,-6.7188 14.559,-14.559 v -32.48 c 0,-8.3984 -6.7188,-14.559 -14.559,-14.559 l -56.559,-0.004 c -8.3984,0 -14.559,6.7188 -14.559,14.559 v 32.48 c 0,7.8438 6.1602,14.562 14.559,14.562 z"
       id="path488" />
    <path
       d="m 321.44,337.68 h 56.559 c 8.3984,0 14.559,-6.7188 14.559,-14.559 v -32.48 c 0,-8.3984 -6.7188,-14.559 -14.559,-14.559 l -56.559,-0.004 c -8.3984,0 -14.559,6.7188 -14.559,14.559 v 32.48 c -0.004,7.8438 6.7188,14.562 14.559,14.562 z"
       id="path490" />
    <path
       d="m 446.88,337.68 h 56.559 c 8.3984,0 14.559,-6.7188 14.559,-14.559 v -32.48 c 0,-8.3984 -6.7188,-14.559 -14.559,-14.559 l -56.559,-0.004 c -8.3984,0 -14.559,6.7188 -14.559,14.559 v 32.48 c -0.55859,7.8438 6.1602,14.562 14.559,14.562 z"
       id="path492" />
    <path
       d="m 196.56,448 h 56.559 c 8.3984,0 14.559,-6.7188 14.559,-14.559 v -32.48 c 0,-8.3984 -6.7188,-14.559 -14.559,-14.559 l -56.559,-0.004 c -8.3984,0 -14.559,6.7188 -14.559,14.559 v 32.48 c 0,8.4023 6.1602,14.562 14.559,14.562 z"
       id="path494" />
    <path
       d="m 321.44,448 h 56.559 c 8.3984,0 14.559,-6.7188 14.559,-14.559 v -32.48 c 0,-8.3984 -6.7188,-14.559 -14.559,-14.559 l -56.559,-0.004 c -8.3984,0 -14.559,6.7188 -14.559,14.559 v 32.48 c -0.004,8.4023 6.7188,14.562 14.559,14.562 z"
       id="path496" />
    <path
       d="m 446.88,448 h 56.559 c 8.3984,0 14.559,-6.7188 14.559,-14.559 v -32.48 c 0,-8.3984 -6.7188,-14.559 -14.559,-14.559 l -56.559,-0.004 c -8.3984,0 -14.559,6.7188 -14.559,14.559 v 32.48 c -0.55859,8.4023 6.1602,14.562 14.559,14.562 z"
       id="path498" />
  </g>
</svg>
