<?xml version="1.0" encoding="UTF-8" standalone="no"?>
<svg
   version="1.1"
   viewBox="0 0 300 450"
   id="svg135"
   xmlns="http://www.w3.org/2000/svg"
   xmlns:svg="http://www.w3.org/2000/svg">
  <defs
     id="defs59" />
  <g
     id="g133"
     transform="translate(-200.05263,-35.464289)">
    <path
       d="M 441.69302,61.905445 C 393.65745,28.458705 323.78935,28.705797 270.34915,51.654155 209.7031,77.6942 177.95907,144.76021 217.62301,198.6263 c 32.82741,44.57889 112.33521,2.5942 79.21327,-42.38801 -21.48877,-29.18288 40.39977,-37.92388 61.27108,-36.57311 14.09825,0.77216 27.29684,6.60404 36.72629,16.22919 9.42945,9.62532 14.335,22.2643 13.64652,35.18072 -1.21711,36.22371 -35.15424,51.97865 -62.46243,71.99745 -35.8645,26.2906 -58.16771,54.64724 -49.7885,96.58268 10.60565,53.08927 103.2912,37.10111 92.72248,-15.82256 -2.72267,-13.63516 48.63977,-37.98398 68.56975,-55.43144 19.92998,-17.44745 29.70131,-36.84578 37.25566,-62.23905 7.80921,-26.15188 6.93246,-53.84441 -2.52294,-79.53592 -9.45171,-25.69498 -27.0525,-48.229785 -50.55843,-64.722535 z"
       id="path61"
       style="stroke-width:0.90612" />
    <path
       d="m 345.20141,392.1463 c -68.54698,0 -68.64357,93.31799 0,93.31799 68.64358,0 68.54698,-93.31799 0,-93.31799 z"
       id="path63"
       style="stroke-width:0.955135" />
  </g>
</svg>
