<?xml version="1.0" encoding="UTF-8" standalone="no"?>
<svg
   version="1.1"
   viewBox="0 0 300 450"
   id="svg3536"
   xmlns="http://www.w3.org/2000/svg"
   xmlns:svg="http://www.w3.org/2000/svg">
  <defs
     id="defs3540" />
  <g
     id="g3530"
     transform="matrix(5.8605196,0,0,5.8605196,-35.631959,-77.886305)">
    <path
       id="path3528"
       d="m 16.08,90.074932 h 31.19 c 5.522847,0 10,-4.477153 10,-10 V 23.29 c 0,-5.522847 -4.477153,-10 -10,-10 H 16.08 c -5.522847,0 -10,4.477153 -10,10 v 56.784932 c 0,5.522847 4.477153,10 10,10 z M 12.08,23.29 c 0,-2.209139 1.790861,-4 4,-4 h 31.19 c 2.209139,0 4,1.790861 4,4 v 56.784932 c 0,2.209139 -1.790861,4 -4,4 H 16.08 c -2.209139,0 -4,-1.790861 -4,-4 z m 6.05,47.022434 c 0,-1.656854 1.343146,-2.999905 3,-2.999905 h 21.08 c 3.999998,0 3.999998,5.99998 0,5.99998 H 21.13 c -1.656854,0 -3,-1.343221 -3,-3.000075 z m 0,-37.26001 c 0,-1.656854 1.343146,-3 3,-3 h 21.08 c 3.999998,0 3.999998,6 0,6 H 21.13 c -1.656854,0 -3,-1.343146 -3,-3 z m 0,12.42 c 0,-1.656854 1.343146,-3 3,-3 h 21.08 c 3.999998,0 3.999998,6 0,6 H 21.13 c -1.656854,0 -3,-1.343146 -3,-3 z m 0,12.42 c 0,-1.656854 1.343146,-3 3,-3 h 21.08 c 3.999998,0 3.999998,6 0,6 H 21.13 c -1.656854,0 -3,-1.343146 -3,-3 z" />
  </g>
</svg>
